<svg width="191" height="30" viewBox="0 0 191 30" fill="none" xmlns="http://www.w3.org/2000/svg">
<path d="M3.55 23V20.075H8.35C9.28333 20.075 10.0583 19.875 10.675 19.475C11.2917 19.0583 11.7583 18.4583 12.075 17.675C12.3917 16.8917 12.55 15.9333 12.55 14.8C12.55 13.8667 12.45 13.0667 12.25 12.4C12.05 11.7167 11.75 11.1583 11.35 10.725C10.9667 10.2917 10.475 9.96667 9.875 9.75C9.29167 9.53333 8.6 9.425 7.8 9.425H3.55V6.5H7.675C9.675 6.5 11.3083 6.825 12.575 7.475C13.8417 8.125 14.775 9.05833 15.375 10.275C15.975 11.475 16.275 12.9167 16.275 14.6C16.275 15.8667 16.125 16.9667 15.825 17.9C15.525 18.8333 15.1167 19.625 14.6 20.275C14.1 20.925 13.5167 21.45 12.85 21.85C12.1833 22.25 11.475 22.5417 10.725 22.725C9.975 22.9083 9.21667 23 8.45 23H3.55ZM1.825 23V6.5H5.425V23H1.825ZM16.7811 23V6.5H20.4061V23H16.7811ZM19.2811 23V20.075H29.5061V23H19.2811ZM19.2811 16V13.325H28.2561V16H19.2811ZM19.2811 9.4V6.5H29.4561V9.4H19.2811ZM28.6049 23L34.2799 14.725L28.7299 6.5H32.9299L36.7299 12.8H36.8799L40.7049 6.5H44.9299L39.3049 14.65L45.0799 23H40.8799L36.8549 16.55H36.7299L32.8049 23H28.6049Z" fill="white"/>
<path d="M78.4 23.35C77.1167 23.35 75.9667 23.175 74.95 22.825C73.95 22.4583 73.0917 21.925 72.375 21.225C71.675 20.5083 71.1417 19.625 70.775 18.575C70.4083 17.525 70.225 16.3083 70.225 14.925C70.225 13.525 70.4083 12.2833 70.775 11.2C71.1583 10.1167 71.7 9.2 72.4 8.45C73.1167 7.68333 73.9583 7.10833 74.925 6.725C75.8917 6.34167 76.9667 6.15 78.15 6.15C79.0667 6.15 79.9167 6.275 80.7 6.525C81.4833 6.75833 82.1583 7.1 82.725 7.55C83.2917 8 83.7333 8.55 84.05 9.2C84.3833 9.85 84.5583 10.5833 84.575 11.4L81.25 12.275C81.25 11.575 81.0917 10.9917 80.775 10.525C80.475 10.0583 80.075 9.70833 79.575 9.475C79.0917 9.225 78.575 9.1 78.025 9.1C77.5417 9.1 77.0583 9.2 76.575 9.4C76.1083 9.58333 75.675 9.9 75.275 10.35C74.8917 10.7833 74.575 11.3583 74.325 12.075C74.0917 12.7917 73.975 13.6667 73.975 14.7C73.975 16.05 74.1667 17.1417 74.55 17.975C74.95 18.8083 75.4917 19.425 76.175 19.825C76.8583 20.2083 77.625 20.4 78.475 20.4C79.3917 20.4 80.1 20.2167 80.6 19.85C81.1167 19.4667 81.4833 18.9833 81.7 18.4C81.9333 17.8 82.0583 17.1667 82.075 16.5L85.225 17.025C85.2083 17.9083 85.075 18.7417 84.825 19.525C84.575 20.2917 84.1833 20.9667 83.65 21.55C83.1167 22.1167 82.4167 22.5583 81.55 22.875C80.6833 23.1917 79.6333 23.35 78.4 23.35ZM85.3172 23V6.5H92.0172C92.9172 6.5 93.7339 6.575 94.4672 6.725C95.2005 6.85833 95.8505 7.05833 96.4172 7.325C96.9839 7.59167 97.4589 7.925 97.8422 8.325C98.2422 8.70833 98.5422 9.15833 98.7422 9.675C98.9422 10.175 99.0422 10.7333 99.0422 11.35C99.0422 11.9333 98.9505 12.4667 98.7672 12.95C98.5839 13.4167 98.3089 13.825 97.9422 14.175C97.5755 14.525 97.1172 14.8167 96.5672 15.05C96.0172 15.2667 95.3755 15.4167 94.6422 15.5V15.875C95.4922 15.9583 96.1672 16.1583 96.6672 16.475C97.1839 16.775 97.5839 17.1833 97.8672 17.7C98.1672 18.2167 98.4255 18.8583 98.6422 19.625L99.6422 23H95.6672L94.8922 19.875C94.7422 19.2083 94.5255 18.6917 94.2422 18.325C93.9589 17.9417 93.6005 17.675 93.1672 17.525C92.7339 17.3583 92.2089 17.275 91.5922 17.275H88.9172V23H85.3172ZM88.9172 14.575H91.7672C92.9005 14.575 93.7755 14.3583 94.3922 13.925C95.0089 13.4917 95.3172 12.8167 95.3172 11.9C95.3172 11 95.0255 10.3417 94.4422 9.925C93.8755 9.49167 93.0172 9.275 91.8672 9.275H88.9172V14.575ZM98.4832 23L104.133 6.5H109.383L115.033 23H111.133L106.958 9.35H106.583L102.383 23H98.4832ZM101.658 19.75V17.3H112.383V19.75H101.658ZM116.044 23L112.319 6.5H116.244L118.694 19.925H118.969L121.869 6.5H126.444L129.344 19.925H129.644L132.094 6.5H135.819L132.044 23H127.019L124.219 9.575H123.994L121.194 23H116.044ZM135.727 23V6.5H139.327V23H135.727ZM136.477 23V19.975H146.302V23H136.477ZM145.923 23V6.5H149.548V23H145.923ZM148.423 23V20.075H158.648V23H148.423ZM148.423 16V13.325H157.398V16H148.423ZM148.423 9.4V6.5H158.598V9.4H148.423ZM158.95 23V6.5H165.65C166.55 6.5 167.367 6.575 168.1 6.725C168.833 6.85833 169.483 7.05833 170.05 7.325C170.617 7.59167 171.092 7.925 171.475 8.325C171.875 8.70833 172.175 9.15833 172.375 9.675C172.575 10.175 172.675 10.7333 172.675 11.35C172.675 11.9333 172.583 12.4667 172.4 12.95C172.217 13.4167 171.942 13.825 171.575 14.175C171.208 14.525 170.75 14.8167 170.2 15.05C169.65 15.2667 169.008 15.4167 168.275 15.5V15.875C169.125 15.9583 169.8 16.1583 170.3 16.475C170.817 16.775 171.217 17.1833 171.5 17.7C171.8 18.2167 172.058 18.8583 172.275 19.625L173.275 23H169.3L168.525 19.875C168.375 19.2083 168.158 18.6917 167.875 18.325C167.592 17.9417 167.233 17.675 166.8 17.525C166.367 17.3583 165.842 17.275 165.225 17.275H162.55V23H158.95ZM162.55 14.575H165.4C166.533 14.575 167.408 14.3583 168.025 13.925C168.642 13.4917 168.95 12.8167 168.95 11.9C168.95 11 168.658 10.3417 168.075 9.925C167.508 9.49167 166.65 9.275 165.5 9.275H162.55V14.575ZM179.817 23.35C178.734 23.35 177.759 23.2417 176.892 23.025C176.042 22.825 175.309 22.5167 174.692 22.1C174.092 21.6667 173.617 21.1333 173.267 20.5C172.934 19.85 172.742 19.1083 172.692 18.275L175.842 17.25C175.876 18 176.059 18.625 176.392 19.125C176.742 19.625 177.234 19.9917 177.867 20.225C178.501 20.4583 179.209 20.575 179.992 20.575C180.742 20.575 181.376 20.4833 181.892 20.3C182.409 20.1167 182.801 19.875 183.067 19.575C183.334 19.2583 183.467 18.9167 183.467 18.55C183.467 18.1167 183.301 17.7667 182.967 17.5C182.634 17.2333 182.176 17.0083 181.592 16.825C181.026 16.6417 180.376 16.4667 179.642 16.3C178.826 16.1167 178.017 15.9083 177.217 15.675C176.434 15.4417 175.717 15.1417 175.067 14.775C174.434 14.4083 173.926 13.9333 173.542 13.35C173.176 12.7667 172.992 12.0333 172.992 11.15C172.992 10.1333 173.242 9.25833 173.742 8.525C174.259 7.775 175.009 7.19167 175.992 6.775C176.976 6.35833 178.159 6.15 179.542 6.15C180.942 6.15 182.134 6.35833 183.117 6.775C184.117 7.175 184.892 7.75 185.442 8.5C185.992 9.23333 186.292 10.1083 186.342 11.125L183.092 12.025C183.092 11.5083 183.009 11.0583 182.842 10.675C182.676 10.2917 182.442 9.975 182.142 9.725C181.842 9.45833 181.467 9.25833 181.017 9.125C180.584 8.99167 180.084 8.925 179.517 8.925C178.867 8.925 178.301 9.00833 177.817 9.175C177.351 9.34167 176.992 9.56667 176.742 9.85C176.509 10.1333 176.392 10.4667 176.392 10.85C176.392 11.3 176.576 11.675 176.942 11.975C177.326 12.2583 177.826 12.4917 178.442 12.675C179.076 12.8583 179.767 13.0333 180.517 13.2C181.234 13.35 181.959 13.5417 182.692 13.775C183.442 13.9917 184.134 14.2833 184.767 14.65C185.417 15 185.934 15.4833 186.317 16.1C186.717 16.7 186.917 17.4583 186.917 18.375C186.917 19.375 186.651 20.25 186.117 21C185.584 21.75 184.784 22.3333 183.717 22.75C182.667 23.15 181.367 23.35 179.817 23.35Z" fill="white"/>
<path d="M41.3477 11C40.9937 11 40.8783 11.4788 41.1973 11.6328C42.9543 12.4758 45.5127 14.1973 45.2227 16.9863C45.1667 17.5173 45.6164 17.9744 46.1504 17.9824C48.7464 18.0194 54.92 18.58 56 23C57.08 18.58 63.2536 18.0185 65.8496 17.9805C66.3836 17.9725 66.8324 17.5164 66.7774 16.9844C66.4874 14.1954 69.0457 12.4749 70.8027 11.6309C71.1227 11.4779 71.0064 11 70.6524 11H61.7734C61.3384 11 60.9585 11.2938 60.8535 11.7168C60.6565 12.5128 60.2401 13.71 59.4981 13.875C58.4361 14.125 57.3945 14.5122 57.2695 13.8242C57.2695 13.2762 57.1464 12.593 57.0664 12.207C57.0484 12.121 56.9264 12.1133 56.8984 12.1973L56.5625 13.1875C56.5625 13.1875 56.438 13 56 13C55.563 13 55.4375 13.1875 55.4375 13.1875L55.1016 12.1973C55.0736 12.1133 54.9516 12.121 54.9336 12.207C54.8536 12.593 54.7305 13.2762 54.7305 13.8242C54.6055 14.5122 53.564 14.125 52.502 13.875C51.76 13.711 51.3435 12.5138 51.1465 11.7168C51.0415 11.2938 50.6635 11 50.2285 11H41.3477Z" fill="white"/>
</svg>
